<?xml version="1.0" encoding="UTF-8"?>
<svg id="Réteg_1" data-name="Réteg 1" xmlns="http://www.w3.org/2000/svg" viewBox="0 0 432 273">
  <g>
    <path d="M64.87,156.89l-.1-41.99-20.59,34.59h-7.3l-20.49-33.69v41.09H1.19v-69.98h13.4l26.19,43.49,25.79-43.49h13.29l.2,69.98h-15.19Z"/>
    <path d="M150.84,143.89v12.99h-54.18v-69.98h52.88v13h-36.79v15.19h32.49v12.6h-32.49v16.19h38.09Z"/>
    <path d="M227.91,86.91v69.98h-13.3l-34.89-42.48v42.48h-16v-69.98h13.4l34.79,42.49v-42.49h16Z"/>
    <path d="M244.5,86.91h16.19v69.98h-16.19v-69.98Z"/>
    <path d="M351.94,73.7l-47.05,101.05-7.01-17.87-30.19-69.98h17.49l21.29,49.98,26.03-62.92,19.43-.26Z"/>
    <path d="M393.75,141.89h-32.49l-6.2,14.99h-16.59l31.19-69.98h15.99l31.29,69.98h-16.99l-6.2-14.99ZM388.65,129.6l-11.1-26.79-11.1,26.79h22.19Z"/>
    <path d="M284.58,65.04L402.88,0l4.88,23.12,22.48,107.35-24.31-10.27-8.68-106.95-86.01,56.77-26.67-4.98Z"/>
  </g>
  <g>
    <path d="M36.52,176.74v35.21h-4.16v-25.87c0-.34.01-.71.04-1.11s.05-.79.09-1.2l-12.05,22.01c-.38.74-.95,1.11-1.71,1.11h-.69c-.77,0-1.34-.37-1.71-1.11l-12.3-22.11c.1.87.15,1.67.15,2.41v25.87H0v-35.21h3.5c.42,0,.75.04.98.12.23.08.45.31.66.69l12.12,21.67c.2.39.39.8.58,1.23.19.43.36.86.53,1.3.16-.44.33-.88.51-1.31.18-.43.38-.85.59-1.24l11.9-21.64c.2-.38.41-.61.65-.69.24-.08.57-.12.99-.12h3.5Z"/>
    <path d="M63.83,208.46c-.54.65-1.18,1.22-1.93,1.71-.75.48-1.56.88-2.41,1.19s-1.74.54-2.66.7c-.91.16-1.82.23-2.72.23-1.72,0-3.29-.29-4.74-.87-1.44-.58-2.69-1.43-3.75-2.55-1.05-1.12-1.87-2.51-2.46-4.16-.59-1.65-.88-3.55-.88-5.7,0-1.74.27-3.36.8-4.86.53-1.51,1.29-2.81,2.29-3.92,1-1.11,2.21-1.97,3.65-2.6,1.44-.63,3.05-.95,4.85-.95,1.49,0,2.86.25,4.13.75,1.27.5,2.36,1.22,3.28,2.16.92.94,1.64,2.1,2.17,3.49.52,1.38.78,2.96.78,4.73,0,.69-.07,1.15-.22,1.38-.15.23-.42.34-.83.34h-16.58c.05,1.57.27,2.94.65,4.1.38,1.16.92,2.13,1.6,2.91s1.5,1.36,2.45,1.74c.95.39,2.01.58,3.18.58,1.09,0,2.04-.13,2.83-.38.79-.25,1.47-.53,2.05-.82.57-.3,1.05-.57,1.43-.82.38-.25.71-.38.99-.38.36,0,.64.14.83.42l1.22,1.6ZM60.3,196.79c0-1.02-.14-1.94-.43-2.79s-.7-1.57-1.25-2.19c-.55-.61-1.21-1.09-2-1.43-.78-.34-1.67-.5-2.67-.5-2.09,0-3.74.61-4.96,1.83s-1.97,2.91-2.27,5.07h13.57Z"/>
    <path d="M68.92,190.57c1.37-1.33,2.85-2.32,4.43-2.97,1.58-.65,3.34-.98,5.27-.98,1.39,0,2.62.23,3.7.69,1.08.46,1.98,1.1,2.72,1.92.74.82,1.29,1.81,1.67,2.97.38,1.16.56,2.44.56,3.83v15.92h-1.93c-.42,0-.75-.07-.98-.21-.23-.14-.41-.41-.54-.82l-.49-2.36c-.65.61-1.29,1.14-1.91,1.61s-1.27.86-1.96,1.18c-.69.32-1.42.56-2.19.74-.78.17-1.64.26-2.58.26s-1.87-.13-2.72-.41-1.59-.68-2.22-1.22c-.63-.54-1.13-1.22-1.49-2.05-.37-.83-.55-1.81-.55-2.94,0-.98.27-1.93.81-2.84s1.41-1.72,2.62-2.42c1.21-.7,2.78-1.28,4.73-1.73,1.94-.45,4.33-.71,7.15-.77v-1.94c0-1.93-.42-3.39-1.25-4.39-.83-.99-2.05-1.49-3.65-1.49-1.08,0-1.98.14-2.71.41-.73.27-1.35.57-1.89.91-.53.34-.99.64-1.37.91-.38.27-.76.41-1.14.41-.29,0-.55-.08-.76-.23-.21-.15-.39-.35-.54-.58l-.78-1.4ZM83.01,200.74c-2.01.07-3.72.23-5.13.48-1.41.25-2.56.59-3.45.99-.89.41-1.54.89-1.93,1.45-.4.56-.6,1.18-.6,1.87s.11,1.22.32,1.7c.21.47.5.86.87,1.17.37.3.8.52,1.3.66.5.14,1.03.21,1.6.21.77,0,1.47-.08,2.11-.23.64-.15,1.24-.38,1.8-.68.56-.29,1.1-.65,1.62-1.06.51-.41,1.02-.88,1.51-1.4v-5.16Z"/>
    <path d="M98.02,190.67c.54-.61,1.11-1.15,1.72-1.65.6-.49,1.24-.91,1.92-1.27.68-.35,1.4-.62,2.16-.81.76-.19,1.58-.28,2.46-.28,1.35,0,2.55.23,3.59.68,1.04.45,1.9,1.09,2.6,1.92.69.83,1.22,1.82,1.58,2.99.36,1.16.54,2.45.54,3.86v15.85h-4.38v-15.85c0-1.88-.43-3.34-1.29-4.39-.86-1.04-2.16-1.56-3.91-1.56-1.29,0-2.49.31-3.61.93s-2.15,1.47-3.1,2.53v18.33h-4.38v-24.89h2.62c.62,0,1,.3,1.15.91l.34,2.7Z"/>
    <path d="M126.77,179.24c0,.43-.09.82-.26,1.19-.17.37-.4.7-.69.98-.29.29-.62.51-1,.68-.38.16-.79.25-1.21.25s-.82-.08-1.19-.25c-.37-.16-.69-.39-.97-.68-.28-.29-.5-.61-.66-.98-.16-.37-.25-.77-.25-1.19s.08-.83.25-1.22c.16-.39.38-.72.66-1.01.28-.29.6-.51.97-.68.37-.16.76-.25,1.19-.25s.83.08,1.21.25c.38.16.72.39,1,.68.29.29.51.62.69,1.01.17.38.26.79.26,1.22ZM125.84,187.06v24.89h-4.36v-24.89h4.36Z"/>
    <path d="M137.11,190.67c.54-.61,1.11-1.15,1.72-1.65.6-.49,1.24-.91,1.92-1.27.68-.35,1.4-.62,2.16-.81.76-.19,1.58-.28,2.46-.28,1.35,0,2.55.23,3.59.68,1.04.45,1.9,1.09,2.6,1.92.69.83,1.22,1.82,1.58,2.99.36,1.16.54,2.45.54,3.86v15.85h-4.38v-15.85c0-1.88-.43-3.34-1.29-4.39-.86-1.04-2.16-1.56-3.91-1.56-1.29,0-2.49.31-3.61.93s-2.15,1.47-3.1,2.53v18.33h-4.38v-24.89h2.62c.62,0,1,.3,1.15.91l.34,2.7Z"/>
    <path d="M181.27,188.04v1.62c0,.54-.34.88-1.03,1.03l-2.82.37c.55,1.08.83,2.28.83,3.59,0,1.21-.23,2.31-.7,3.3-.46.99-1.11,1.84-1.92,2.54-.82.7-1.8,1.24-2.94,1.62-1.14.38-2.38.56-3.72.56-1.16,0-2.25-.14-3.28-.42-.52.33-.92.68-1.2,1.04-.28.37-.42.74-.42,1.12,0,.59.24,1.04.72,1.34.48.3,1.11.52,1.9.65.78.13,1.68.21,2.68.25,1,.03,2.03.09,3.09.16,1.05.07,2.08.2,3.09.38,1,.18,1.9.48,2.68.88.78.41,1.42.97,1.9,1.69.48.72.72,1.65.72,2.8,0,1.06-.27,2.1-.8,3.1-.53,1-1.29,1.89-2.29,2.67-1,.78-2.22,1.4-3.66,1.87-1.44.47-3.07.7-4.89.7s-3.4-.18-4.75-.54c-1.36-.36-2.48-.84-3.38-1.45-.9-.61-1.57-1.31-2.02-2.1-.45-.79-.67-1.63-.67-2.49,0-1.23.38-2.27,1.15-3.12.77-.85,1.82-1.53,3.16-2.04-.73-.33-1.32-.77-1.75-1.31s-.65-1.29-.65-2.22c0-.36.07-.73.2-1.12.13-.38.33-.77.6-1.15.27-.38.6-.75.99-1.09.39-.34.85-.65,1.37-.91-1.23-.69-2.18-1.6-2.87-2.74s-1.03-2.46-1.03-3.97c0-1.21.23-2.31.7-3.3.47-.99,1.11-1.83,1.95-2.53.83-.7,1.82-1.23,2.98-1.61,1.15-.38,2.41-.57,3.78-.57,1.08,0,2.08.12,3.01.36.93.24,1.78.59,2.55,1.04h6.74ZM176.83,213.3c0-.61-.17-1.1-.51-1.47-.34-.38-.8-.67-1.38-.88-.58-.21-1.25-.36-2.02-.45-.77-.09-1.58-.16-2.44-.21-.86-.05-1.73-.1-2.61-.15-.88-.05-1.73-.13-2.55-.25-.91.43-1.66.96-2.24,1.61-.58.65-.87,1.4-.87,2.27,0,.56.14,1.08.43,1.56.29.48.72.9,1.31,1.25.59.35,1.33.63,2.22.84.89.2,1.94.31,3.15.31s2.23-.11,3.16-.32c.93-.21,1.72-.52,2.36-.91.64-.39,1.14-.86,1.48-1.4.34-.54.51-1.14.51-1.79ZM168.97,199.78c.88,0,1.66-.12,2.33-.37.67-.25,1.23-.59,1.69-1.03s.8-.97,1.03-1.58c.23-.61.34-1.29.34-2.03,0-1.52-.46-2.74-1.38-3.64s-2.26-1.35-4-1.35-3.11.45-4.03,1.35-1.38,2.11-1.38,3.64c0,.74.12,1.41.36,2.03.24.61.58,1.14,1.04,1.58s1.02.79,1.69,1.03,1.45.37,2.33.37Z"/>
    <path d="M187.42,211.94v-21.15l-2.74-.32c-.34-.08-.62-.21-.84-.38-.22-.17-.33-.42-.33-.75v-1.79h3.92v-2.41c0-1.42.2-2.69.6-3.8.4-1.1.97-2.04,1.71-2.8.74-.76,1.64-1.34,2.68-1.73,1.04-.39,2.22-.59,3.53-.59,1.11,0,2.13.16,3.06.49l-.1,2.19c-.03.39-.25.61-.65.64s-.93.05-1.6.05c-.75,0-1.43.1-2.05.29s-1.14.52-1.58.96-.78,1.02-1.02,1.74c-.24.72-.36,1.61-.36,2.68v2.28h7.15v3.17h-7v21.23h-4.38Z"/>
    <path d="M223.37,187.06v24.89h-2.6c-.62,0-1.01-.3-1.18-.91l-.34-2.68c-1.08,1.2-2.29,2.16-3.63,2.89-1.34.73-2.87,1.09-4.6,1.09-1.36,0-2.55-.23-3.59-.68-1.04-.45-1.91-1.08-2.61-1.9-.7-.82-1.23-1.81-1.58-2.97-.35-1.16-.53-2.45-.53-3.86v-15.87h4.36v15.87c0,1.88.43,3.34,1.29,4.37.86,1.03,2.17,1.55,3.93,1.55,1.29,0,2.49-.31,3.61-.92,1.12-.61,2.15-1.46,3.1-2.54v-18.33h4.36Z"/>
    <path d="M234.78,175.76v36.19h-4.36v-36.19h4.36Z"/>
    <path d="M285.82,194.35c0,2.64-.42,5.04-1.25,7.2-.83,2.16-2.01,4.01-3.53,5.55-1.52,1.54-3.34,2.73-5.47,3.57-2.13.84-4.49,1.27-7.07,1.27h-13.1v-35.21h13.1c2.58,0,4.93.42,7.07,1.27,2.13.84,3.96,2.04,5.47,3.59,1.52,1.55,2.69,3.4,3.53,5.56.83,2.16,1.25,4.56,1.25,7.2ZM280.95,194.35c0-2.16-.29-4.09-.88-5.8-.59-1.7-1.42-3.14-2.5-4.32-1.08-1.18-2.38-2.08-3.92-2.7s-3.25-.93-5.14-.93h-8.35v27.49h8.35c1.89,0,3.61-.31,5.14-.93s2.84-1.52,3.92-2.69c1.08-1.17,1.91-2.61,2.5-4.31.59-1.7.88-3.64.88-5.8Z"/>
    <path d="M290.36,190.57c1.37-1.33,2.85-2.32,4.43-2.97,1.58-.65,3.34-.98,5.27-.98,1.39,0,2.62.23,3.7.69,1.08.46,1.98,1.1,2.72,1.92.74.82,1.29,1.81,1.67,2.97.38,1.16.56,2.44.56,3.83v15.92h-1.93c-.42,0-.75-.07-.98-.21-.23-.14-.41-.41-.54-.82l-.49-2.36c-.65.61-1.29,1.14-1.91,1.61s-1.27.86-1.96,1.18c-.69.32-1.42.56-2.19.74-.78.17-1.64.26-2.58.26s-1.87-.13-2.72-.41-1.59-.68-2.22-1.22c-.63-.54-1.13-1.22-1.49-2.05-.37-.83-.55-1.81-.55-2.94,0-.98.27-1.93.81-2.84s1.41-1.72,2.62-2.42c1.21-.7,2.78-1.28,4.73-1.73,1.94-.45,4.33-.71,7.15-.77v-1.94c0-1.93-.42-3.39-1.25-4.39-.83-.99-2.05-1.49-3.65-1.49-1.08,0-1.98.14-2.71.41-.73.27-1.35.57-1.89.91-.53.34-.99.64-1.37.91-.38.27-.76.41-1.14.41-.29,0-.55-.08-.76-.23-.21-.15-.39-.35-.54-.58l-.78-1.4ZM304.44,200.74c-2.01.07-3.72.23-5.13.48-1.41.25-2.56.59-3.45.99-.89.41-1.54.89-1.93,1.45-.4.56-.6,1.18-.6,1.87s.11,1.22.32,1.7c.21.47.5.86.87,1.17.37.3.8.52,1.3.66.5.14,1.03.21,1.6.21.77,0,1.47-.08,2.11-.23.64-.15,1.24-.38,1.8-.68.56-.29,1.1-.65,1.62-1.06.51-.41,1.02-.88,1.51-1.4v-5.16Z"/>
    <path d="M322.64,212.34c-1.96,0-3.47-.55-4.52-1.65s-1.58-2.68-1.58-4.74v-15.23h-2.99c-.26,0-.48-.08-.66-.23s-.27-.4-.27-.72v-1.74l4.07-.52,1-7.69c.05-.25.16-.45.33-.6.17-.16.4-.23.67-.23h2.2v8.57h7.18v3.17h-7.18v14.94c0,1.05.25,1.83.76,2.33.51.51,1.16.76,1.96.76.46,0,.85-.06,1.19-.18.33-.12.63-.26.87-.41.25-.15.45-.28.63-.41.17-.12.32-.18.45-.18.23,0,.43.14.61.42l1.27,2.09c-.75.7-1.66,1.26-2.72,1.66s-2.16.6-3.28.6Z"/>
    <path d="M331.94,190.57c1.37-1.33,2.85-2.32,4.43-2.97,1.58-.65,3.34-.98,5.27-.98,1.39,0,2.62.23,3.7.69,1.08.46,1.98,1.1,2.72,1.92.74.82,1.29,1.81,1.67,2.97.38,1.16.56,2.44.56,3.83v15.92h-1.93c-.42,0-.75-.07-.98-.21-.23-.14-.41-.41-.54-.82l-.49-2.36c-.65.61-1.29,1.14-1.91,1.61s-1.27.86-1.96,1.18c-.69.32-1.42.56-2.19.74-.78.17-1.64.26-2.58.26s-1.87-.13-2.72-.41-1.59-.68-2.22-1.22c-.63-.54-1.13-1.22-1.49-2.05-.37-.83-.55-1.81-.55-2.94,0-.98.27-1.93.81-2.84s1.41-1.72,2.62-2.42c1.21-.7,2.78-1.28,4.73-1.73,1.94-.45,4.33-.71,7.15-.77v-1.94c0-1.93-.42-3.39-1.25-4.39-.83-.99-2.05-1.49-3.65-1.49-1.08,0-1.98.14-2.71.41-.73.27-1.35.57-1.89.91-.53.34-.99.64-1.37.91-.38.27-.76.41-1.14.41-.29,0-.55-.08-.76-.23-.21-.15-.39-.35-.54-.58l-.78-1.4ZM346.03,200.74c-2.01.07-3.72.23-5.13.48-1.41.25-2.56.59-3.45.99-.89.41-1.54.89-1.93,1.45-.4.56-.6,1.18-.6,1.87s.11,1.22.32,1.7c.21.47.5.86.87,1.17.37.3.8.52,1.3.66.5.14,1.03.21,1.6.21.77,0,1.47-.08,2.11-.23.64-.15,1.24-.38,1.8-.68.56-.29,1.1-.65,1.62-1.06.51-.41,1.02-.88,1.51-1.4v-5.16Z"/>
    <path d="M57.81,228.83v35.21h-4.16v-25.87c0-.34.01-.71.04-1.11.02-.39.05-.79.09-1.2l-12.05,22.01c-.38.74-.95,1.11-1.71,1.11h-.69c-.77,0-1.34-.37-1.71-1.11l-12.3-22.11c.1.87.15,1.67.15,2.41v25.87h-4.16v-35.21h3.5c.42,0,.75.04.98.12.23.08.45.31.66.69l12.12,21.67c.2.39.39.8.58,1.23.19.43.36.86.53,1.3.16-.44.33-.88.51-1.31s.38-.85.59-1.24l11.9-21.64c.2-.38.41-.61.65-.69.24-.08.57-.12.99-.12h3.5Z"/>
    <path d="M85.11,260.54c-.54.65-1.18,1.22-1.93,1.71-.75.48-1.56.88-2.41,1.19-.86.31-1.74.54-2.66.7-.91.16-1.82.23-2.72.23-1.72,0-3.29-.29-4.74-.87-1.44-.58-2.69-1.43-3.75-2.55-1.05-1.12-1.87-2.51-2.46-4.16-.59-1.65-.88-3.55-.88-5.7,0-1.74.27-3.36.8-4.86.53-1.51,1.29-2.81,2.29-3.92,1-1.1,2.21-1.97,3.65-2.6,1.44-.63,3.05-.95,4.85-.95,1.49,0,2.86.25,4.13.75,1.27.5,2.36,1.22,3.28,2.16.92.94,1.64,2.1,2.17,3.49.52,1.38.78,2.96.78,4.73,0,.69-.07,1.15-.22,1.38-.15.23-.42.34-.83.34h-16.58c.05,1.57.27,2.94.65,4.1.38,1.16.92,2.13,1.6,2.91s1.5,1.36,2.45,1.74,2.01.58,3.18.58c1.09,0,2.04-.13,2.83-.38.79-.25,1.47-.53,2.05-.82.57-.3,1.05-.57,1.43-.82.38-.25.71-.38.99-.38.36,0,.64.14.83.42l1.22,1.6ZM81.59,248.87c0-1.02-.14-1.95-.43-2.79-.29-.84-.7-1.57-1.25-2.19-.55-.61-1.21-1.09-2-1.42s-1.67-.5-2.67-.5c-2.09,0-3.74.61-4.96,1.83-1.22,1.22-1.97,2.91-2.27,5.07h13.57Z"/>
    <path d="M90.21,242.66c1.37-1.33,2.85-2.32,4.43-2.97,1.58-.65,3.34-.98,5.27-.98,1.39,0,2.62.23,3.7.69,1.08.46,1.98,1.1,2.72,1.92.74.82,1.29,1.81,1.67,2.97.38,1.16.56,2.44.56,3.83v15.92h-1.93c-.42,0-.75-.07-.98-.21-.23-.14-.41-.41-.54-.82l-.49-2.36c-.65.61-1.29,1.14-1.91,1.61-.62.47-1.27.86-1.96,1.18s-1.42.57-2.19.74c-.78.17-1.64.26-2.58.26s-1.87-.13-2.72-.4c-.85-.27-1.59-.68-2.22-1.22s-1.13-1.22-1.49-2.05c-.37-.83-.55-1.81-.55-2.94,0-.98.27-1.93.81-2.84s1.41-1.72,2.62-2.42c1.21-.7,2.78-1.28,4.73-1.73,1.94-.45,4.33-.71,7.15-.77v-1.94c0-1.93-.42-3.39-1.25-4.38-.83-.99-2.05-1.49-3.65-1.49-1.08,0-1.98.13-2.71.4-.73.27-1.35.57-1.89.91s-.99.64-1.37.91c-.38.27-.76.41-1.14.41-.29,0-.55-.08-.76-.23s-.39-.35-.54-.58l-.78-1.4ZM104.29,252.83c-2.01.06-3.72.23-5.13.48s-2.56.59-3.45.99c-.89.41-1.54.89-1.93,1.45-.4.56-.6,1.18-.6,1.87s.11,1.22.32,1.69.5.86.87,1.17c.37.3.8.52,1.3.66.5.14,1.03.21,1.6.21.77,0,1.47-.08,2.11-.23s1.24-.38,1.8-.68c.56-.29,1.1-.65,1.62-1.06.51-.41,1.02-.88,1.51-1.4v-5.16Z"/>
    <path d="M119.31,242.76c.54-.61,1.11-1.15,1.72-1.65.6-.49,1.24-.91,1.92-1.26.68-.35,1.4-.62,2.16-.81.76-.19,1.58-.28,2.46-.28,1.35,0,2.55.22,3.59.68,1.04.45,1.9,1.09,2.6,1.92.69.83,1.22,1.82,1.58,2.99.36,1.16.54,2.45.54,3.86v15.85h-4.38v-15.85c0-1.88-.43-3.34-1.29-4.38s-2.16-1.56-3.91-1.56c-1.29,0-2.49.31-3.61.93-1.12.62-2.15,1.47-3.1,2.53v18.33h-4.38v-24.89h2.62c.62,0,1,.3,1.15.91l.34,2.7Z"/>
    <path d="M148.06,231.33c0,.43-.09.82-.26,1.19-.17.37-.4.7-.69.98-.29.29-.62.51-1,.68-.38.16-.79.25-1.21.25s-.82-.08-1.19-.25c-.37-.16-.69-.39-.97-.68-.28-.29-.5-.61-.66-.98-.16-.37-.25-.77-.25-1.19s.08-.83.25-1.22c.16-.39.38-.72.66-1.01.28-.29.6-.51.97-.68.37-.16.76-.25,1.19-.25s.83.08,1.21.25c.38.16.72.39,1,.68.29.29.51.62.69,1.01.17.38.26.79.26,1.22ZM147.13,239.15v24.89h-4.36v-24.89h4.36Z"/>
    <path d="M158.39,242.76c.54-.61,1.11-1.15,1.72-1.65.6-.49,1.24-.91,1.92-1.26.68-.35,1.4-.62,2.16-.81.76-.19,1.58-.28,2.46-.28,1.35,0,2.55.22,3.59.68,1.04.45,1.9,1.09,2.6,1.92.69.83,1.22,1.82,1.58,2.99.36,1.16.54,2.45.54,3.86v15.85h-4.38v-15.85c0-1.88-.43-3.34-1.29-4.38s-2.16-1.56-3.91-1.56c-1.29,0-2.49.31-3.61.93-1.12.62-2.15,1.47-3.1,2.53v18.33h-4.38v-24.89h2.62c.62,0,1,.3,1.15.91l.34,2.7Z"/>
    <path d="M202.55,240.13v1.62c0,.54-.34.88-1.03,1.03l-2.82.37c.55,1.08.83,2.28.83,3.59,0,1.21-.23,2.31-.7,3.3-.46.99-1.11,1.84-1.92,2.54-.82.7-1.8,1.25-2.94,1.62-1.14.38-2.38.57-3.72.57-1.16,0-2.25-.14-3.28-.42-.52.33-.92.68-1.2,1.04-.28.37-.42.74-.42,1.12,0,.59.24,1.04.72,1.34.48.3,1.11.52,1.9.65.78.13,1.68.21,2.68.25,1,.03,2.03.09,3.09.16,1.05.07,2.08.2,3.09.38,1,.18,1.9.47,2.68.88.78.41,1.42.97,1.9,1.69.48.72.72,1.65.72,2.8,0,1.06-.27,2.1-.8,3.09-.53,1-1.29,1.89-2.29,2.67s-2.22,1.4-3.66,1.87c-1.44.47-3.07.7-4.89.7s-3.4-.18-4.75-.54c-1.36-.36-2.48-.84-3.38-1.45-.9-.61-1.57-1.31-2.02-2.1-.45-.79-.67-1.62-.67-2.49,0-1.23.38-2.27,1.15-3.12.77-.85,1.82-1.53,3.16-2.04-.73-.33-1.32-.77-1.75-1.31s-.65-1.29-.65-2.22c0-.36.07-.73.2-1.12.13-.38.33-.77.6-1.15.27-.39.6-.75.99-1.09s.85-.65,1.37-.91c-1.23-.69-2.18-1.6-2.87-2.74s-1.03-2.46-1.03-3.97c0-1.21.23-2.31.7-3.3.47-.99,1.11-1.83,1.95-2.53.83-.7,1.82-1.23,2.98-1.61,1.15-.38,2.41-.56,3.78-.56,1.08,0,2.08.12,3.01.36.93.24,1.78.59,2.55,1.04h6.74ZM198.12,265.38c0-.61-.17-1.1-.51-1.47-.34-.38-.8-.67-1.38-.88-.58-.21-1.25-.36-2.02-.45-.77-.09-1.58-.16-2.44-.21s-1.73-.1-2.61-.15-1.73-.13-2.55-.25c-.91.43-1.66.96-2.24,1.61-.58.65-.87,1.4-.87,2.27,0,.56.14,1.08.43,1.56.29.48.72.9,1.31,1.25.59.35,1.33.63,2.22.84.89.2,1.94.31,3.15.31s2.23-.11,3.16-.32c.93-.21,1.72-.52,2.36-.91.64-.39,1.14-.86,1.48-1.4.34-.54.51-1.14.51-1.79ZM190.26,251.87c.88,0,1.66-.12,2.33-.37.67-.25,1.23-.59,1.69-1.03s.8-.97,1.03-1.58c.23-.61.34-1.29.34-2.03,0-1.52-.46-2.74-1.38-3.64-.92-.9-2.26-1.35-4-1.35s-3.11.45-4.03,1.35c-.92.9-1.38,2.11-1.38,3.64,0,.74.12,1.41.36,2.03.24.61.58,1.14,1.04,1.58s1.02.79,1.69,1.03c.67.25,1.45.37,2.33.37Z"/>
    <path d="M208.7,264.03v-21.15l-2.74-.32c-.34-.08-.62-.21-.84-.38-.22-.17-.33-.42-.33-.75v-1.79h3.92v-2.41c0-1.42.2-2.69.6-3.8.4-1.1.97-2.04,1.71-2.8.74-.76,1.64-1.34,2.68-1.73,1.04-.39,2.22-.59,3.53-.59,1.11,0,2.13.16,3.06.49l-.1,2.19c-.03.39-.25.61-.65.64s-.93.05-1.6.05c-.75,0-1.43.1-2.05.29s-1.14.52-1.58.96-.78,1.02-1.02,1.74c-.24.72-.36,1.61-.36,2.68v2.29h7.15v3.17h-7v21.23h-4.38Z"/>
    <path d="M244.66,239.15v24.89h-2.6c-.62,0-1.01-.3-1.18-.91l-.34-2.68c-1.08,1.2-2.29,2.16-3.63,2.89s-2.87,1.09-4.6,1.09c-1.36,0-2.55-.23-3.59-.68-1.04-.45-1.91-1.08-2.61-1.9-.7-.82-1.23-1.81-1.58-2.97-.35-1.16-.53-2.45-.53-3.86v-15.87h4.36v15.87c0,1.88.43,3.34,1.29,4.37.86,1.03,2.17,1.55,3.93,1.55,1.29,0,2.49-.31,3.61-.92,1.12-.61,2.15-1.46,3.1-2.54v-18.33h4.36Z"/>
    <path d="M256.07,227.84v36.19h-4.36v-36.19h4.36Z"/>
    <path d="M305.2,247.11v13.51c-1.76,1.28-3.65,2.23-5.65,2.86s-4.19.95-6.58.95c-2.82,0-5.37-.44-7.64-1.31-2.27-.88-4.21-2.1-5.82-3.69-1.61-1.58-2.85-3.48-3.71-5.69-.87-2.21-1.3-4.64-1.3-7.3s.42-5.13,1.26-7.35c.84-2.21,2.04-4.11,3.59-5.69,1.55-1.58,3.44-2.81,5.66-3.67,2.22-.87,4.7-1.3,7.45-1.3,1.39,0,2.68.1,3.87.31,1.19.2,2.29.5,3.31.88,1.01.39,1.95.85,2.82,1.4.86.55,1.67,1.17,2.42,1.86l-1.35,2.16c-.21.33-.49.54-.82.63-.33.09-.71.01-1.11-.23-.39-.23-.84-.51-1.35-.84-.51-.33-1.12-.64-1.85-.95-.73-.3-1.58-.56-2.57-.77-.99-.21-2.16-.32-3.51-.32-1.98,0-3.76.32-5.36.97-1.6.65-2.96,1.57-4.09,2.78-1.13,1.2-1.99,2.66-2.6,4.37-.6,1.71-.91,3.63-.91,5.76s.31,4.19.94,5.93c.63,1.74,1.53,3.23,2.69,4.45,1.17,1.22,2.58,2.15,4.25,2.79,1.67.64,3.54.96,5.61.96,1.63,0,3.08-.18,4.35-.55,1.27-.37,2.5-.88,3.71-1.54v-7.74h-5.46c-.31,0-.56-.09-.75-.27-.19-.18-.28-.4-.28-.66v-2.7h10.78Z"/>
    <path d="M315.2,244.13c.78-1.7,1.75-3.03,2.89-3.99s2.54-1.44,4.19-1.44c.52,0,1.02.06,1.51.17.48.12.91.3,1.29.54l-.32,3.27c-.1.41-.34.61-.74.61-.23,0-.56-.05-1-.15-.44-.1-.94-.15-1.49-.15-.78,0-1.48.11-2.09.34s-1.16.57-1.64,1.02c-.48.45-.91,1.01-1.3,1.67-.38.66-.73,1.42-1.04,2.27v15.72h-4.38v-24.89h2.5c.47,0,.8.09.98.27s.3.49.37.93l.29,3.78Z"/>
    <path d="M338.34,238.75c1.81,0,3.45.3,4.9.91,1.45.61,2.69,1.47,3.72,2.58s1.82,2.46,2.36,4.04.82,3.35.82,5.29-.27,3.74-.82,5.31c-.55,1.57-1.33,2.92-2.36,4.03-1.03,1.11-2.27,1.97-3.72,2.57s-3.09.9-4.9.9-3.47-.3-4.93-.9c-1.46-.6-2.71-1.45-3.74-2.57-1.03-1.11-1.82-2.46-2.36-4.03-.55-1.57-.82-3.34-.82-5.31s.27-3.71.82-5.29c.55-1.58,1.33-2.93,2.36-4.04s2.27-1.97,3.74-2.58c1.46-.61,3.11-.91,4.93-.91ZM338.34,260.96c2.45,0,4.28-.82,5.49-2.47,1.21-1.65,1.81-3.94,1.81-6.89s-.6-5.27-1.81-6.93c-1.21-1.65-3.04-2.48-5.49-2.48-1.24,0-2.32.21-3.25.64-.92.43-1.69,1.04-2.3,1.84s-1.07,1.79-1.37,2.96c-.3,1.17-.45,2.49-.45,3.97,0,2.95.61,5.25,1.82,6.89,1.22,1.65,3.07,2.47,5.55,2.47Z"/>
    <path d="M389.51,239.15l-8.03,24.89h-3.45c-.42,0-.72-.28-.88-.84l-5.49-16.88c-.13-.38-.24-.76-.32-1.14-.08-.38-.16-.77-.25-1.14-.08.38-.16.76-.25,1.14-.08.39-.19.77-.32,1.17l-5.58,16.85c-.15.56-.47.84-.98.84h-3.28l-8.03-24.89h3.43c.34,0,.63.09.87.27.24.18.4.39.48.64l4.75,16.02c.28,1.18.5,2.29.66,3.34.15-.54.3-1.09.45-1.65.15-.56.32-1.12.5-1.69l5.24-16.12c.08-.25.22-.45.43-.61.2-.16.45-.25.75-.25h1.91c.33,0,.6.08.81.25.21.16.36.37.44.61l5.12,16.12c.18.57.34,1.14.49,1.69.15.56.29,1.11.42,1.65.08-.54.18-1.09.31-1.63.12-.55.26-1.12.4-1.71l4.85-16.02c.08-.26.24-.48.46-.65.23-.17.5-.26.81-.26h3.28Z"/>
    <path d="M401.38,264.43c-1.96,0-3.47-.55-4.52-1.65-1.05-1.1-1.58-2.68-1.58-4.74v-15.23h-2.99c-.26,0-.48-.08-.66-.23-.18-.15-.27-.4-.27-.72v-1.74l4.07-.52,1-7.69c.05-.25.16-.45.33-.6.17-.16.4-.23.67-.23h2.2v8.57h7.18v3.17h-7.18v14.94c0,1.05.25,1.83.76,2.33.51.51,1.16.76,1.96.76.46,0,.85-.06,1.19-.18s.63-.26.87-.4c.25-.15.45-.28.63-.41.17-.12.32-.18.45-.18.23,0,.43.14.61.42l1.27,2.09c-.75.7-1.66,1.26-2.72,1.66s-2.16.6-3.28.6Z"/>
    <path d="M415.71,242.46c1.06-1.13,2.24-2.03,3.53-2.7,1.29-.67,2.78-1.01,4.46-1.01,1.35,0,2.55.22,3.59.68,1.04.45,1.9,1.09,2.6,1.92.69.83,1.22,1.82,1.58,2.99.36,1.16.54,2.45.54,3.86v15.85h-4.38v-15.85c0-1.88-.43-3.34-1.29-4.38-.86-1.04-2.16-1.56-3.91-1.56-1.29,0-2.49.31-3.61.93s-2.15,1.47-3.1,2.53v18.33h-4.38v-36.19h4.38v14.62Z"/>
  </g>
</svg>