<?xml version="1.0" standalone="no"?>
<!DOCTYPE svg PUBLIC "-//W3C//DTD SVG 20010904//EN"
 "http://www.w3.org/TR/2001/REC-SVG-20010904/DTD/svg10.dtd">
<svg version="1.0" xmlns="http://www.w3.org/2000/svg"
 width="300.000000pt" height="225.000000pt" viewBox="0 0 300.000000 225.000000"
 preserveAspectRatio="xMidYMid meet">
<metadata>
Created by potrace 1.10, written by Peter Selinger 2001-2011
</metadata>
<g transform="translate(0.000000,225.000000) scale(0.100000,-0.100000)"
fill="#000000" stroke="none">
<path d="M1133 2146 c-65 -31 -129 -90 -168 -154 l-30 -50 -96 -4 c-83 -3
-104 -8 -162 -36 -124 -61 -206 -211 -207 -375 0 -42 -4 -51 -35 -78 -62 -55
-70 -146 -20 -244 21 -42 22 -49 9 -73 -22 -43 -18 -140 9 -192 31 -62 80 -88
134 -72 22 7 58 26 79 43 73 58 113 74 189 73 79 0 136 -21 218 -80 37 -27 52
-33 61 -24 15 16 -39 61 -122 102 -47 23 -81 32 -136 36 -85 5 -132 -7 -195
-52 -81 -58 -96 -66 -124 -66 -62 0 -110 104 -87 190 9 33 18 44 45 56 44 18
70 18 89 -1 14 -14 46 -11 46 5 0 4 -9 15 -21 26 -20 18 -58 22 -124 12 -44
-7 -82 140 -52 199 29 56 40 58 92 18 26 -20 53 -34 59 -32 16 5 20 37 4 37
-7 0 -30 15 -51 33 l-37 32 10 84 c19 144 66 236 148 291 59 39 109 52 198 54
63 0 76 -3 111 -27 52 -36 106 -50 160 -42 36 5 43 4 43 -10 0 -9 14 -30 30
-47 26 -26 35 -29 66 -24 32 7 40 2 104 -51 38 -32 69 -64 69 -71 1 -8 14 -26
31 -42 l29 -27 3 -312 c2 -171 1 -311 -2 -311 -3 0 -40 28 -82 61 -70 54 -77
63 -67 81 21 38 -19 108 -63 108 -10 0 -20 9 -23 23 -3 12 -16 69 -29 126
l-24 105 29 27 c37 34 40 86 7 116 -32 29 -59 35 -88 20 -22 -11 -43 -9 -160
18 -132 31 -134 32 -142 63 -16 59 -82 80 -131 42 -33 -26 -41 -63 -23 -99 27
-52 81 -60 136 -20 11 8 47 3 140 -19 l125 -29 5 -39 c4 -29 12 -44 36 -59 28
-18 32 -29 58 -147 l28 -128 -21 -26 c-47 -59 -6 -138 68 -133 34 3 48 -5 131
-70 l93 -74 -7 -106 c-3 -58 -9 -180 -13 -271 l-6 -165 -111 -115 c-61 -63
-115 -118 -120 -122 -6 -4 -4 -13 5 -24 13 -15 19 -11 79 55 l65 71 35 -90
c32 -83 50 -105 65 -81 3 6 -13 52 -35 103 l-40 93 45 45 44 45 15 281 16 281
101 99 c55 54 108 99 117 100 48 1 74 16 88 49 14 35 11 58 -14 87 -13 15 -10
37 24 190 37 172 38 173 78 208 30 27 58 39 115 52 100 22 111 22 111 -2 0
-37 -31 -97 -56 -108 -23 -11 -32 -36 -16 -46 14 -9 66 32 85 66 9 18 17 54
17 80 l0 47 44 6 c89 14 151 -21 183 -103 14 -36 18 -74 18 -164 -1 -117 0
-118 23 -118 41 0 102 -38 119 -76 23 -47 7 -137 -42 -239 l-36 -76 -39 43
c-21 24 -51 51 -68 60 -25 15 -31 16 -42 4 -9 -12 -7 -17 10 -26 39 -21 100
-82 100 -100 0 -9 -8 -24 -18 -32 -81 -72 -211 -62 -331 26 -27 20 -56 36 -65
36 -17 0 -66 -46 -66 -62 0 -21 31 -19 49 3 l19 24 48 -34 c151 -109 294 -105
401 11 87 96 146 264 122 352 -13 50 -67 103 -113 112 l-34 6 0 101 c0 193
-66 288 -197 288 l-53 0 5 82 c5 78 4 84 -21 114 -16 19 -41 35 -60 38 -23 5
-37 16 -51 41 -26 49 -75 76 -135 76 -27 -1 -58 -6 -69 -12 -16 -8 -22 -7 -31
9 -5 11 -35 32 -65 47 -51 24 -63 26 -143 22 -60 -4 -106 -13 -147 -30 l-61
-24 -54 25 c-82 37 -188 40 -257 7z m235 -38 l52 -19 0 -55 c0 -47 3 -54 19
-54 17 0 20 8 23 53 l3 52 69 23 c77 26 182 31 231 12 83 -32 112 -114 59
-167 -24 -24 -30 -25 -95 -21 l-70 5 -61 -103 c-52 -89 -64 -104 -86 -104 -14
0 -36 -10 -48 -21 l-23 -21 -60 52 c-50 43 -59 56 -51 71 16 29 12 49 -19 80
-35 34 -68 37 -104 9 -17 -14 -47 -22 -89 -26 -54 -4 -69 -2 -102 18 -22 13
-41 28 -43 34 -6 18 84 132 127 160 84 55 161 62 268 22z m679 -82 c38 -41 41
-64 13 -94 -19 -20 -27 -52 -14 -52 17 0 46 24 59 49 18 35 45 32 76 -8 17
-22 20 -34 14 -81 -11 -100 -16 -105 -108 -124 -45 -9 -92 -19 -103 -22 -17
-4 -23 0 -28 21 -8 30 -55 54 -92 47 -25 -4 -64 -45 -64 -66 0 -16 -199 -11
-216 6 -11 11 -4 29 39 103 l53 89 65 1 c46 0 73 5 93 18 30 20 56 71 56 112
0 32 30 46 85 40 30 -3 48 -13 72 -39z m-759 -158 c7 -7 12 -21 12 -33 0 -12
-5 -26 -12 -33 -28 -28 -78 -7 -78 33 0 12 5 26 12 33 7 7 21 12 33 12 12 0
26 -5 33 -12z m626 -154 c23 -23 20 -51 -8 -69 -34 -23 -66 -5 -66 35 0 44 44
65 74 34z m-1096 -41 c4 -37 -19 -58 -53 -49 -36 9 -45 54 -16 77 31 25 65 11
69 -28z m734 10 c25 -22 23 -50 -6 -68 -45 -30 -91 16 -61 61 18 28 41 31 67
7z m277 -62 l30 -28 -38 -169 -38 -168 -31 -8 c-17 -5 -38 -18 -47 -30 -18
-27 -20 -79 -3 -96 10 -10 -6 -31 -75 -100 l-87 -87 0 316 0 315 30 22 c17 13
30 31 30 42 0 19 7 20 99 20 95 0 100 -1 130 -29z m-604 -65 c18 -26 11 -52
-16 -67 -43 -22 -86 36 -53 72 23 26 50 24 69 -5z m593 -380 c5 -22 -26 -56
-49 -56 -24 0 -51 42 -43 64 16 41 84 34 92 -8z m-516 -33 c24 -21 23 -45 -2
-68 -30 -27 -70 -7 -70 34 0 45 39 64 72 34z"/>
<path d="M884 1480 c-26 -10 -54 -48 -54 -73 0 -29 28 -75 50 -82 16 -5 20
-15 20 -54 0 -26 -2 -50 -5 -52 -2 -3 -26 -3 -52 1 -43 5 -48 8 -55 37 -6 21
-19 38 -38 48 -82 42 -160 -65 -95 -130 30 -31 73 -32 109 -4 22 18 34 19 83
13 58 -7 59 -8 251 -176 166 -147 192 -174 192 -199 0 -15 -9 -124 -20 -241
-23 -234 -19 -223 -96 -255 -42 -17 -55 -35 -34 -48 5 -3 40 10 77 29 l68 34
19 203 c10 112 20 231 22 264 l4 60 -200 174 -200 175 0 57 c0 49 3 59 25 73
34 22 47 52 40 87 -10 45 -69 76 -111 59z m57 -40 c26 -14 24 -55 -3 -74 -19
-13 -25 -14 -43 -2 -27 18 -32 56 -9 73 22 16 30 16 55 3z m-197 -176 c34 -34
9 -78 -41 -72 -22 2 -29 9 -31 31 -6 50 38 75 72 41z"/>
<path d="M2092 1457 c-33 -35 -30 -89 7 -119 28 -22 29 -26 23 -78 l-7 -56
-181 -172 -182 -172 -7 -234 c-7 -233 -7 -235 -32 -258 -14 -13 -43 -45 -65
-71 -32 -38 -38 -51 -29 -60 10 -9 26 3 75 57 l62 69 70 -116 c64 -109 84
-130 98 -108 3 5 -28 65 -70 132 l-76 123 3 224 3 223 179 169 179 168 85 7
c78 6 87 5 107 -14 34 -32 79 -28 110 10 32 38 33 70 2 105 -33 39 -89 39
-122 0 -13 -15 -24 -33 -24 -41 0 -9 -17 -16 -47 -20 -27 -3 -60 -8 -75 -10
l-27 -4 6 52 c3 29 10 53 14 55 36 14 59 46 59 81 0 73 -89 110 -138 58z m88
-27 c11 -11 20 -24 20 -30 0 -12 -37 -50 -48 -50 -17 0 -52 32 -52 47 0 21 29
53 47 53 7 0 22 -9 33 -20z m238 -162 c7 -7 12 -21 12 -33 0 -12 -5 -26 -12
-33 -7 -7 -21 -12 -33 -12 -12 0 -26 5 -33 12 -7 7 -12 21 -12 33 0 12 5 26
12 33 7 7 21 12 33 12 12 0 26 -5 33 -12z"/>
</g>
</svg>
